<?xml version="1.0" standalone="no"?>
<!DOCTYPE svg PUBLIC "-//W3C//DTD SVG 20010904//EN"
 "http://www.w3.org/TR/2001/REC-SVG-20010904/DTD/svg10.dtd">
<svg version="1.0" xmlns="http://www.w3.org/2000/svg"
 width="600.000000pt" height="600.000000pt" viewBox="0 0 600.000000 600.000000"
 preserveAspectRatio="xMidYMid meet">
<metadata>
Created by potrace 1.14, written by Peter Selinger 2001-2017
</metadata>
<g transform="translate(0.000000,600.000000) scale(0.100000,-0.100000)"
fill="#000000" stroke="none">
<path d="M0 3000 l0 -3000 3000 0 3000 0 0 3000 0 3000 -3000 0 -3000 0 0
-3000z m3013 1880 c38 -6 81 -17 97 -25 69 -36 133 -110 159 -185 13 -39 17
-778 5 -1087 l-7 -171 189 -4 189 -4 62 -32 c42 -21 76 -49 103 -83 72 -91 70
-64 70 -902 l0 -749 22 -40 c41 -72 141 -111 226 -88 59 15 127 82 142 139 11
41 5 84 -69 490 -113 626 -113 630 -102 901 6 124 12 300 16 392 l5 167 -32 5
c-18 3 -53 8 -78 11 -99 12 -193 95 -220 195 -5 19 -10 138 -10 263 l0 229
-95 101 c-95 103 -145 164 -145 179 0 4 28 29 62 54 l62 45 276 -276 c297
-297 322 -329 340 -442 6 -32 10 -299 10 -594 0 -297 5 -583 10 -640 11 -108
15 -135 75 -464 107 -592 112 -647 70 -732 -34 -68 -120 -147 -202 -186 -63
-30 -76 -32 -173 -32 -97 0 -110 2 -165 30 -74 37 -153 114 -185 180 l-25 50
-5 775 c-5 701 -7 777 -22 798 -36 52 -53 57 -220 60 l-158 4 0 -594 c0 -594
-9 -1289 -17 -1297 -6 -8 -1473 18 -1485 25 -8 5 -10 472 -5 1660 l6 1652 24
49 c52 102 137 162 247 173 102 11 878 11 953 0z"/>
<path d="M2036 4639 l-26 -20 0 -414 0 -414 26 -20 c26 -21 36 -21 491 -21
475 0 491 1 520 39 9 12 12 118 13 419 l0 403 -26 24 -27 25 -472 0 c-463 0
-473 0 -499 -21z"/>
<path d="M3942 3947 c3 -107 5 -117 28 -142 26 -28 58 -47 98 -59 22 -7 22 -7
22 104 0 161 -14 187 -115 206 l-37 7 4 -116z"/>
<path d="M2555 3369 c-13 -20 -65 -210 -75 -273 -12 -72 -12 -221 -1 -288 4
-27 7 -48 5 -48 -1 0 -26 32 -55 71 -52 70 -165 173 -268 243 -30 20 -56 34
-58 32 -6 -5 48 -123 97 -216 33 -61 136 -178 189 -213 35 -23 20 -32 -26 -15
-64 22 -343 14 -343 -11 0 -11 122 -66 204 -90 47 -15 96 -21 159 -21 l90 0
-54 -57 c-29 -31 -48 -58 -42 -60 20 -7 108 44 140 81 17 19 33 33 35 30 3 -2
1 -32 -3 -66 -8 -69 -7 -73 16 -65 11 5 15 22 15 68 l0 62 44 -41 c50 -46 100
-75 123 -70 12 2 2 18 -35 59 l-52 57 108 4 c67 3 126 11 157 23 78 27 185 77
185 85 0 26 -235 37 -324 16 -38 -9 -70 -15 -72 -13 -1 1 24 24 57 50 32 26
77 71 100 99 43 55 166 294 156 304 -7 8 -156 -99 -225 -161 -29 -26 -75 -78
-104 -116 -28 -38 -52 -68 -54 -66 -2 2 1 30 6 63 21 128 10 244 -41 432 -31
111 -41 133 -54 111z"/>
<path d="M2090 2273 c-23 -8 -50 -45 -50 -69 0 -27 30 -54 61 -54 40 0 49 13
48 66 -2 59 -16 72 -59 57z m20 -48 c-6 -8 -9 -19 -5 -25 3 -5 2 -10 -4 -10
-5 0 -13 5 -16 10 -8 12 12 40 27 40 6 0 5 -6 -2 -15z"/>
<path d="M2849 2278 c-1 -4 -7 -36 -15 -85 -5 -35 -4 -43 9 -43 18 0 24 16 32
83 4 38 2 47 -10 47 -8 0 -15 -1 -16 -2z"/>
<path d="M2605 2250 c-3 -5 -23 -10 -45 -10 -43 0 -63 -26 -35 -46 14 -10 13
-12 -6 -17 -27 -7 -15 -27 15 -27 31 0 49 23 41 51 -5 15 -3 20 6 17 8 -3 16
-18 19 -34 7 -40 40 -46 40 -7 0 15 4 35 10 43 5 9 5 19 -2 27 -13 15 -34 17
-43 3z"/>
<path d="M2772 2248 c-8 -11 -10 -47 -3 -90 1 -5 11 -8 22 -8 17 0 20 5 16 21
-3 12 -1 29 5 39 22 34 -14 69 -40 38z"/>
<path d="M2174 2216 c-3 -14 -4 -32 -2 -42 4 -22 28 -31 28 -10 0 9 9 25 20
36 28 28 25 40 -10 40 -23 0 -31 -5 -36 -24z"/>
<path d="M2260 2223 c0 -11 -5 -24 -11 -30 -21 -21 -2 -43 36 -41 37 1 51 23
43 65 -5 26 -68 32 -68 6z"/>
<path d="M2349 2224 c-11 -14 -11 -18 4 -29 16 -12 16 -13 -5 -19 -21 -6 -22
-7 -5 -17 10 -6 28 -9 40 -7 17 2 22 10 22 33 0 17 4 36 8 43 13 19 -48 15
-64 -4z"/>
<path d="M2434 2225 c-4 -8 -1 -21 5 -29 9 -11 8 -15 -5 -20 -25 -9 -3 -29 27
-24 20 2 24 8 23 36 -1 17 2 32 7 32 5 0 9 5 9 10 0 16 -60 12 -66 -5z"/>
<path d="M2679 2233 c-1 -5 -1 -12 0 -17 1 -5 -5 -16 -14 -26 -20 -22 -3 -37
42 -38 29 -1 33 3 39 33 3 19 3 38 -1 44 -7 12 -64 15 -66 4z"/>
<path d="M2902 2228 c-6 -6 -12 -25 -12 -40 0 -48 65 -51 94 -5 24 37 -49 78
-82 45z m48 -33 c0 -8 -4 -15 -9 -15 -13 0 -22 16 -14 24 11 11 23 6 23 -9z"/>
<path d="M3006 2218 c-3 -13 -6 -33 -6 -46 0 -35 34 -25 38 11 2 15 8 27 14
27 6 0 8 -12 5 -30 -6 -25 -3 -30 13 -30 21 0 35 33 28 67 -2 13 -14 19 -44
21 -36 3 -42 0 -48 -20z"/>
</g>
</svg>
